<svg xmlns="http://www.w3.org/2000/svg" fill="#fff" viewBox="0 0 322.9 71.05"><defs><style>.cls-3{fill:#ff7900;}</style></defs><title>OpenRH_1</title><g id="Calque_2" data-name="Calque 2"><g id="Calque_1-2" data-name="Calque 1"><g id="Groupe_8" data-name="Groupe 8"><g id="pen_RH" data-name="pen RH" class="cls-1"><g class="cls-1"><path class="cls-2" d="M57.54,16.43H68.09v5.16h.16c2.65-4.3,7-6.25,12-6.25,12.66,0,18.36,10.24,18.36,21.72,0,10.79-5.93,20.87-17.73,20.87a14.34,14.34,0,0,1-12.12-6.1h-.15V71.05H57.54Zm30,20.32c0-6.41-2.58-13-9.69-13-7.27,0-9.61,6.49-9.61,13.05s2.5,12.82,9.69,12.82S87.55,43.31,87.55,36.75Z"/><path class="cls-2" d="M114.43,39.33c.31,7,3.75,10.24,9.92,10.24,4.45,0,8.05-2.74,8.75-5.24h9.77c-3.13,9.53-9.77,13.6-18.91,13.6-12.74,0-20.63-8.76-20.63-21.26,0-12.11,8.36-21.33,20.63-21.33,13.75,0,20.39,11.56,19.61,24Zm18-7c-1-5.63-3.44-8.6-8.83-8.6-7,0-9.07,5.47-9.22,8.6Z"/><path class="cls-2" d="M150.14,16.43h10.54v5.63h.24a14.41,14.41,0,0,1,12.34-6.72C185.06,15.34,188,22,188,32V56.83H176.94V34c0-6.65-2-9.93-7.11-9.93-6,0-8.6,3.36-8.6,11.57V56.83H150.14Z"/><path class="cls-2" d="M219.37,1h30.08c10,0,16.33,7,16.33,15.39,0,6.57-2.66,11.49-8.83,14v.16c6,1.56,7.74,7.42,8.13,13.05.23,3.51.15,10.08,2.34,13.2H255.15c-1.48-3.51-1.32-8.91-2-13.36-.86-5.86-3.13-8.44-9.3-8.44H231.63v21.8H219.37Zm12.26,25.24h13.44c5.47,0,8.44-2.34,8.44-8,0-5.39-3-7.74-8.44-7.74H231.63Z"/><path class="cls-2" d="M275.78,1h12.27V22.45h22.58V1H322.9V56.83H310.63V32.77H288.05V56.83H275.78Z"/></g></g><g id="O" class="cls-1"><g class="cls-1"><path class="cls-2" d="M26.72,0C44.46,0,53.45,14.07,53.45,29.22s-9,29.23-26.73,29.23S0,44.38,0,29.22,9,0,26.72,0Zm0,52.2c13.6,0,19.3-11.72,19.3-23s-5.7-23-19.3-23S7.42,18,7.42,29.22,13.13,52.2,26.72,52.2Z"/></g></g><g id="infinity"><g id="Groupe_7" data-name="Groupe 7"><path id="Tracé_4" data-name="Tracé 4" class="cls-3" d="M36.1,19.81c-3.66,0-7.62,4.18-9.37,6.27C25,24,21,19.81,17.35,19.81c-4.4,0-7,3.1-7,8.28s2.63,8.28,7,8.28c3.66,0,7.62-4.18,9.37-6.27,1.76,2.09,5.72,6.27,9.38,6.27,4.4,0,7-3.09,7-8.28S40.5,19.81,36.1,19.81ZM17.35,33.61c-3.11,0-4.68-1.86-4.68-5.52s1.57-5.52,4.68-5.52c2.58,0,6,3.42,7.77,5.52-1.77,2.1-5.18,5.52-7.77,5.52Zm18.75,0c-2.58,0-6-3.42-7.77-5.52,1.76-2.1,5.18-5.52,7.77-5.52,3.11,0,4.68,1.86,4.68,5.52S39.21,33.61,36.1,33.61Z"/></g></g></g></g></g></svg>