<svg xmlns="http://www.w3.org/2000/svg" viewBox="0 0 108.9 26.69"><defs><style>.cls-1{isolation:isolate;}.cls-2{fill:#010101;}</style></defs><title>OpenRH_2</title><g id="Calque_2" data-name="Calque 2"><g id="Calque_1-2" data-name="Calque 1"><g id="Groupe_9" data-name="Groupe 9"><g id="pen_RH" data-name="pen RH" class="cls-1"><g class="cls-1"><path class="cls-2" d="M31.62,7.21a5.53,5.53,0,0,1,4.47,2,8.18,8.18,0,0,1,1.7,5.42,8.2,8.2,0,0,1-1.69,5.41,5.48,5.48,0,0,1-4.42,2.05,5.35,5.35,0,0,1-2.74-.7,4.7,4.7,0,0,1-1.85-1.9H27v7.16H24.62V7.46h2.29V9.9H27a5.07,5.07,0,0,1,1.9-2A5.31,5.31,0,0,1,31.62,7.21ZM31.15,20a3.68,3.68,0,0,0,3.05-1.45,6.16,6.16,0,0,0,1.12-3.89,6.17,6.17,0,0,0-1.12-3.9,3.67,3.67,0,0,0-3.05-1.44,3.61,3.61,0,0,0-3,1.47A6.2,6.2,0,0,0,27,14.67a6.16,6.16,0,0,0,1.13,3.87A3.61,3.61,0,0,0,31.15,20Z"/><path class="cls-2" d="M49.78,17.75h2.37a4.75,4.75,0,0,1-2,3.14,6.51,6.51,0,0,1-4,1.24,6.2,6.2,0,0,1-4.87-2,7.85,7.85,0,0,1-1.77-5.41,8.06,8.06,0,0,1,1.78-5.45A6,6,0,0,1,46,7.21a5.78,5.78,0,0,1,4.6,2,7.73,7.73,0,0,1,1.69,5.24v.92H42v.14a4.73,4.73,0,0,0,1.14,3.32A3.93,3.93,0,0,0,46.21,20a4.19,4.19,0,0,0,2.31-.62A2.91,2.91,0,0,0,49.78,17.75ZM46,9.3a3.67,3.67,0,0,0-2.78,1.16,4.5,4.5,0,0,0-1.21,3h7.83a4.38,4.38,0,0,0-1.1-3A3.55,3.55,0,0,0,46,9.3Z"/><path class="cls-2" d="M54.76,21.88V7.46H57v2.3h.06a4.51,4.51,0,0,1,1.79-1.88,5.44,5.44,0,0,1,2.79-.67,4.75,4.75,0,0,1,3.67,1.42,5.49,5.49,0,0,1,1.32,3.89v9.36H64.24V13a3.83,3.83,0,0,0-.83-2.68,3.15,3.15,0,0,0-2.48-.93,3.53,3.53,0,0,0-2.73,1.11,4.14,4.14,0,0,0-1,2.94v8.49Z"/><path class="cls-2" d="M78.41,14v7.92H75.92v-20h7.5A6.5,6.5,0,0,1,88.06,3.5,5.66,5.66,0,0,1,89.8,7.83a6.16,6.16,0,0,1-1.07,3.62,5.53,5.53,0,0,1-3,2.12l4.63,8.31H87.48L83.2,14Zm0-9.87v7.67H83.2a4.17,4.17,0,0,0,3-1,3.76,3.76,0,0,0,1-2.85,3.65,3.65,0,0,0-1.1-2.81,4.31,4.31,0,0,0-3-1Z"/><path class="cls-2" d="M108.9,21.88h-2.49V12.77h-11v9.11h-2.5v-20h2.5v8.65h11V1.87h2.49Z"/></g></g><g id="infinity"><g id="Groupe_2" data-name="Groupe 2"><g id="Groupe_1" data-name="Groupe 1"><path id="Tracé_1" data-name="Tracé 1" class="cls-2" d="M7,9.26a2.26,2.26,0,0,0,0,4.51c1.3,0,2.38-1,3.5-2.25C9.39,10.3,8.31,9.26,7,9.26Z"/></g></g><g id="Groupe_4" data-name="Groupe 4"><g id="Groupe_3" data-name="Groupe 3"><path id="Tracé_2" data-name="Tracé 2" class="cls-2" d="M16,9.26c-1.3,0-2.39,1-3.5,2.26,1.11,1.21,2.2,2.25,3.5,2.25a2.26,2.26,0,0,0,0-4.51Z"/></g></g><g id="Groupe_6" data-name="Groupe 6"><g id="Groupe_5" data-name="Groupe 5"><path id="Tracé_3" data-name="Tracé 3" class="cls-2" d="M11.52,0A11.52,11.52,0,1,0,23,11.52h0A11.54,11.54,0,0,0,11.52,0ZM16,15.27c-1.87,0-3.24-1.25-4.51-2.63C10.24,14,8.88,15.27,7,15.27A3.76,3.76,0,1,1,7,7.76c1.87,0,3.24,1.26,4.51,2.64C12.79,9,14.16,7.76,16,7.76a3.76,3.76,0,0,1,0,7.51Z"/></g></g></g></g></g></g></svg>