<svg xmlns="http://www.w3.org/2000/svg" viewBox="0 0 321.88 77.89"><defs><style>.cls-1,.cls-2{isolation:isolate;}.cls-2{font-size:74.32px;fill:#010101;font-family:HelveticaNeueLTStd-Bd, Helvetica Neue LT Std;}.cls-3{fill:#f47920;}</style></defs><title>OpenRH_2</title><g id="Calque_2" data-name="Calque 2"><g id="Calque_1-2" data-name="Calque 1"><g id="Groupe_9" data-name="Groupe 9"><g id="pen_RH" data-name="pen RH" class="cls-1"><text class="cls-2" transform="translate(60.34 61.69)">pen RH</text></g><g id="infinity"><g id="Groupe_2" data-name="Groupe 2"><g id="Groupe_1" data-name="Groupe 1"><path id="Tracé_1" data-name="Tracé 1" class="cls-3" d="M18.35,28.67a5.9,5.9,0,0,0,0,11.8c3.39,0,6.24-2.71,9.15-5.9C24.59,31.39,21.74,28.67,18.35,28.67Z"/></g></g><g id="Groupe_4" data-name="Groupe 4"><g id="Groupe_3" data-name="Groupe 3"><path id="Tracé_2" data-name="Tracé 2" class="cls-3" d="M42,28.67c-3.39,0-6.24,2.72-9.15,5.9,2.91,3.19,5.76,5.9,9.15,5.9a5.9,5.9,0,0,0,0-11.8Z"/></g></g><g id="Groupe_6" data-name="Groupe 6"><g id="Groupe_5" data-name="Groupe 5"><path id="Tracé_3" data-name="Tracé 3" class="cls-3" d="M30.15,4.43A30.15,30.15,0,1,0,60.3,34.58h0A30.18,30.18,0,0,0,30.15,4.43Zm11.8,40c-4.88,0-8.47-3.29-11.8-6.91-3.33,3.62-6.92,6.91-11.8,6.91a9.84,9.84,0,0,1,0-19.67c4.88,0,8.47,3.29,11.8,6.91C33.48,28,37.07,24.74,42,24.74a9.84,9.84,0,0,1,0,19.67Z"/></g></g></g></g></g></g></svg>