<svg xmlns="http://www.w3.org/2000/svg" viewBox="0 0 112.77 28.51" fill="#fff">
<title>OpenRH_1</title>
<g id="Calque_2" data-name="Calque 2">
<g id="Calque_1-2" data-name="Calque 1">
<g id="Groupe_8" data-name="Groupe 8">
<g id="O" class="cls-1">
<g class="cls-1">
<path class="cls-2" d="M3.1,3.48A10.66,10.66,0,0,1,11.5,0a10.67,10.67,0,0,1,8.41,3.48Q23,7,23,12.91t-3.1,9.42a10.69,10.69,0,0,1-8.41,3.46,10.68,10.68,0,0,1-8.4-3.46Q0,18.85,0,12.91T3.1,3.48Zm14.47,2.1A7.47,7.47,0,0,0,11.5,2.87,7.45,7.45,0,0,0,5.44,5.58,11.16,11.16,0,0,0,3.2,12.91a11.16,11.16,0,0,0,2.24,7.31,7.47,7.47,0,0,0,6.06,2.7,7.49,7.49,0,0,0,6.07-2.7,11.16,11.16,0,0,0,2.24-7.31A11.16,11.16,0,0,0,17.57,5.58Z"/>
</g>
</g>
<g id="pen_RH" data-name="pen RH" class="cls-1">
<g class="cls-1">
<path class="cls-2" d="M33.32,8.49a5.71,5.71,0,0,1,4.6,2.09,8.42,8.42,0,0,1,1.75,5.58,8.43,8.43,0,0,1-1.74,5.56,5.63,5.63,0,0,1-4.55,2.1,5.51,5.51,0,0,1-2.81-.71,4.91,4.91,0,0,1-1.91-1.95h-.05v7.35H26.13V8.74h2.35v2.51h.06a5.12,5.12,0,0,1,1.95-2A5.48,5.48,0,0,1,33.32,8.49Zm-.48,13.15A3.77,3.77,0,0,0,36,20.16a6.34,6.34,0,0,0,1.15-4,6.35,6.35,0,0,0-1.15-4,3.77,3.77,0,0,0-3.14-1.48,3.7,3.7,0,0,0-3.08,1.51,6.32,6.32,0,0,0-1.17,4,6.3,6.3,0,0,0,1.17,4A3.72,3.72,0,0,0,32.84,21.64Z"/>
<path class="cls-2" d="M52,19.32h2.43a5,5,0,0,1-2,3.24,6.8,6.8,0,0,1-4.13,1.26,6.34,6.34,0,0,1-5-2.05,8.05,8.05,0,0,1-1.83-5.56,8.29,8.29,0,0,1,1.84-5.6,6.12,6.12,0,0,1,4.88-2.12,5.94,5.94,0,0,1,4.73,2,7.94,7.94,0,0,1,1.74,5.39v.94H44V17a4.94,4.94,0,0,0,1.16,3.42,4.1,4.1,0,0,0,3.17,1.28A4.25,4.25,0,0,0,50.7,21,3.06,3.06,0,0,0,52,19.32Zm-3.89-8.68a3.79,3.79,0,0,0-2.86,1.19A4.68,4.68,0,0,0,44,14.89h8a4.54,4.54,0,0,0-1.12-3.07A3.65,3.65,0,0,0,48.11,10.64Z"/>
<path class="cls-2" d="M57.11,23.57V8.74h2.34v2.37h.06a4.63,4.63,0,0,1,1.84-1.93,5.61,5.61,0,0,1,2.86-.69A4.87,4.87,0,0,1,68,10a5.66,5.66,0,0,1,1.35,4v9.62H66.86V14.39A4,4,0,0,0,66,11.63a3.27,3.27,0,0,0-2.55-1,3.64,3.64,0,0,0-2.81,1.14,4.25,4.25,0,0,0-1.06,3v8.73Z"/>
<path class="cls-2" d="M81.43,15.43v8.14H78.86V3h7.71a6.68,6.68,0,0,1,4.77,1.68,5.81,5.81,0,0,1,1.79,4.45A6.36,6.36,0,0,1,92,12.85,5.69,5.69,0,0,1,89,15l4.76,8.54h-3l-4.4-8.14Zm0-10.15v7.88h4.92a4.24,4.24,0,0,0,3.05-1,3.86,3.86,0,0,0,1.08-2.93,3.76,3.76,0,0,0-1.13-2.89,4.44,4.44,0,0,0-3.12-1Z"/>
<path class="cls-2" d="M112.77,23.57h-2.56V14.2H98.92v9.37H96.35V3h2.57v8.89h11.29V3h2.56Z"/>
</g>
</g>
<g id="infinity">
<g id="Groupe_7" data-name="Groupe 7">
<path id="Tracé_4" data-name="Tracé 4" class="cls-2" d="M15.6,9.27c-1.59,0-3.31,1.82-4.08,2.73C10.76,11.09,9,9.27,7.44,9.27c-1.91,0-3.06,1.35-3.06,3.61s1.15,3.6,3.06,3.6c1.6,0,3.32-1.82,4.08-2.73.76.91,2.48,2.73,4.08,2.73,1.91,0,3-1.35,3-3.6S17.51,9.27,15.6,9.27Zm-8.16,6c-1.35,0-2-.81-2-2.4s.69-2.4,2-2.4c1.12,0,2.61,1.48,3.38,2.4-.77.91-2.25,2.4-3.38,2.4Zm8.16,0c-1.12,0-2.61-1.49-3.38-2.4.76-.92,2.25-2.4,3.38-2.4,1.35,0,2,.8,2,2.4S17,15.28,15.6,15.28Z"/></g></g></g></g></g></svg>