<svg height="480pt" viewBox="-40 0 480 480.18197" width="480pt" xmlns="http://www.w3.org/2000/svg"><path d="m280.089844 336.183594v-12.800782c-.035156-23.453124 9.351562-45.933593 26.050781-62.402343 29.492187-28.496094 46.085937-67.789063 45.949219-108.796875.085937-69.226563-46.621094-129.765625-113.601563-147.253906-66.980469-17.488282-137.316406 12.492187-171.085937 72.925781-33.769532 60.429687-22.4375 136.046875 27.5625 183.925781 16.378906 16.277344 25.449218 38.507812 25.125 61.601562v12.800782c-15.601563-.039063-28.945313 11.210937-31.546875 26.59375-2.601563 15.382812 6.296875 30.394531 21.042969 35.492187-6.621094 9.808594-7.292969 22.46875-1.746094 32.921875 5.550781 10.449219 16.417968 16.984375 28.25 16.992188h8.800781c3.828125 18.609375 20.199219 31.972656 39.199219 32h32c19-.027344 35.375-13.390625 39.199218-32h8.800782c11.832031-.007813 22.695312-6.546875 28.246094-16.996094 5.546874-10.453125 4.875-23.113281-1.75-32.917969 14.746093-5.097656 23.644531-20.105469 21.046874-35.488281-2.601562-15.382812-15.941406-26.632812-31.542968-26.597656zm-174.0625-85.9375c-29.535156-28.21875-44.785156-68.242188-41.503906-108.960938 5.679687-64.535156 55.699218-116.320312 120-124.238281 57.777343-6.667969 113.398437 24.167969 138.351562 76.703125 24.957031 52.535156 13.71875 115.128906-27.953125 155.703125-19.777344 19.507813-30.890625 46.148437-30.832031 73.929687v12.800782h-128v-12.800782c.308594-27.445312-10.539063-53.84375-30.0625-73.136718zm110.0625 213.9375h-32c-10.132813-.042969-19.148438-6.445313-22.527344-16h77.054688c-3.375 9.554687-12.390626 15.957031-22.527344 16zm48-32h-128c-8.835938 0-16-7.164063-16-16 0-8.839844 7.164062-16 16-16h128c8.835937 0 16 7.160156 16 16 0 8.835937-7.164063 16-16 16zm16-48h-160c-8.835938 0-16-7.164063-16-16 0-8.839844 7.164062-16 16-16h160c8.835937 0 16 7.160156 16 16 0 8.835937-7.164063 16-16 16zm0 0"/><path d="m368.089844 144.183594h32v16h-32zm0 0"/><path d="m341.585938 61.246094 27.710937-16 8 13.859375-27.714844 15.996093zm0 0"/><path d="m22.882812 59.117188 8-13.855469 27.710938 16-8 13.855469zm0 0"/><path d="m.0898438 144.183594h32.0000002v16h-32.0000002zm0 0"/><path d="m22.894531 245.246094 27.714844-16 7.996094 13.859375-27.714844 15.996093zm0 0"/><path d="m341.585938 243.113281 8-13.855469 27.710937 16-8 13.855469zm0 0"/><path d="m167.289062 227.757812 4.160157-8.328124 5.097656 15.28125c1.082031 3.25 4.117187 5.453124 7.542969 5.472656h32c3.441406-.003906 6.496094-2.207032 7.585937-5.472656l5.09375-15.28125 4.160157 8.328124c1.355468 2.710938 4.128906 4.425782 7.160156 4.425782h28.457031c5.242187-.003906 10.152344-2.574219 13.144531-6.882813 2.988282-4.308593 3.675782-9.808593 1.839844-14.71875l-16.054688-42.800781c-3.140624-8.296875-10.589843-14.199219-19.386718-15.359375v-46.761719c.035156-8.007812-2.367188-15.835937-6.886719-22.445312-23.96875-35.03125-36.871094-35.03125-41.113281-35.03125-4.238282 0-17.144532 0-41.101563 35.023437-4.523437 6.609375-6.929687 14.441407-6.898437 22.453125v46.761719c-8.789063 1.15625-16.234375 7.046875-19.382813 15.335937l-16.054687 42.824219c-1.835938 4.910157-1.148438 10.410157 1.839844 14.71875 2.988281 4.308594 7.898437 6.878907 13.144531 6.882813h28.453125c3.046875.015625 5.839844-1.699219 7.199218-4.425782zm22.570313-3.574218-2.671875-8h25.808594l-2.671875 8zm62.632813-50.808594 16.054687 42.808594h-23.511719l-.695312-1.394532c2.304687-1.410156 3.71875-3.90625 3.75-6.605468v-39.289063c2.019531.824219 3.613281 2.445313 4.402344 4.480469zm-84.402344-67.714844c-.023438-4.78125 1.402344-9.460937 4.097656-13.414062 15.183594-22.199219 24.894531-28.0625 27.902344-28.0625 3.007812 0 12.722656 5.863281 27.914062 28.070312 2.6875 3.953125 4.113282 8.628906 4.085938 13.40625v94.523438h-24v-48h-16v48h-24zm-36.453125 110.523438 16.054687-42.816406c.792969-2.03125 2.382813-3.648438 4.398438-4.472657v39.289063c.03125 2.699218 1.449218 5.195312 3.753906 6.605468l-.695312 1.394532zm0 0"/><path d="m200.089844 128.183594c13.257812 0 24-10.746094 24-24 0-13.257813-10.742188-24-24-24-13.253906 0-24 10.742187-24 24 0 13.253906 10.746094 24 24 24zm0-32c4.417968 0 8 3.582031 8 8 0 4.417968-3.582032 8-8 8-4.417969 0-8-3.582032-8-8 0-4.417969 3.582031-8 8-8zm0 0"/><path d="m192.089844 272.183594h16v48h-16zm0 0"/><path d="m224.089844 256.183594h16v48h-16zm0 0"/><path d="m160.089844 256.183594h16v48h-16zm0 0"/></svg>